<svg width="13" height="12" fill="none"><path d="M12.8449 5.85484c.2247-.24712.203-.62587-.0485-.84576L7.25687.16193c-.25144-.21988-.65456-.21527-.90071.01039L.79776 5.2675c-.24615.22567-.25823.60394-.02675.84455l.13936.14513c.2312.24062.6049.2693.83416.06388l.41541-.372v5.44623c0 .3342.27075.6047.60466.6047h2.16667c.33391 0 .60467-.2705.60467-.6047V7.58515h2.76362v3.81015c-.00481.3339.23411.6045.56801.6045h2.29613c.3339 0 .6047-.2706.6047-.6047V6.02575s.1147.10053.2563.22494c.1413.12416.438.02461.6627-.22275l.1575-.1731Z" fill="#D31342"/></svg>