<svg width="54" height="40" fill="none"><path d="M40.0179 0c2.4107 0 4.6875.65041 6.8303 1.95122 2.1429 1.30082 3.8839 3.17074 5.2232 5.60976C53.3571 10 54 12.8726 54 16.1789c0 3.3062-.8036 6.5311-2.4107 9.6748-.5357 1.1382-1.5 2.6016-2.8929 4.3902-1.4464 1.7886-2.7857 3.3333-4.0178 4.6341L39.6161 40 36 33.9837c2.5179-1.5718 4.7411-3.523 6.6696-5.8536 1.9286-2.2764 2.8929-4.3632 2.8929-6.2602 0-.9756-.2143-1.7615-.6429-2.3577-1.875 1.355-3.9642 2.0325-6.2678 2.0325-1.6607 0-3.2411-.5149-4.7411-1.5447-1.5536-.9756-2.7857-2.2764-3.6964-3.9024-.9643-1.5719-1.4464-3.1979-1.4464-4.8781 0-1.89701.5625-3.71272 1.6875-5.44714 1.0714-1.73442 2.491-3.14363 4.2589-4.22764C36.4286.51491 38.1964 0 40.0179 0ZM11.1696 0C13.5804 0 15.8571.65041 18 1.95122c2.1429 1.30081 3.8839 3.17073 5.2232 5.60976C24.5089 10 25.1518 12.8726 25.1518 16.1789c0 2.3306-.2947 4.4173-.8839 6.2601-.5893 1.897-1.6072 3.8754-3.0536 5.935-1.3929 1.9512-2.7054 3.5772-3.9375 4.878-1.2322 1.355-3.375 3.6044-6.4286 6.748l-3.61606-6.0163c2.51786-1.5718 4.74106-3.523 6.66966-5.8536 1.9286-2.2764 2.8928-4.3632 2.8928-6.2602 0-.9756-.2142-1.7615-.6428-2.3577-1.875 1.355-3.9643 2.0325-6.26787 2.0325-1.66072 0-3.24108-.5149-4.74108-1.5447-1.55357-.9756-2.78571-2.2764-3.69642-3.9024C.48214 14.5257 0 12.8997 0 11.2195 0 9.32249.5357 7.50677 1.60714 5.77236c1.07143-1.73442 2.49107-3.14363 4.25893-4.22764C7.58036.51491 9.34821 0 11.1696 0Z" fill="#E1E1E1"/></svg>